<svg width="297" height="71" viewBox="0 0 297 71" fill="none" xmlns="http://www.w3.org/2000/svg">
<path d="M159.2 58L138.3 27.75C136.85 25.65 134.8 24 131.7 24C128.45 24 126.4 25.8 125 27.75L103.55 58H115.8L131.5 35.8L137.5 44.65C138.6 46.25 140 48.3 140.9 49.5C139.3 49.4 136.95 49.4 134.95 49.4H126.55L120.3 58H159.2Z" fill="white"/>
<path d="M173.238 49.4V24.55H162.888V58H192.438L199.138 49.4H173.238Z" fill="white"/>
<path d="M224.667 24C208.367 24 200.217 29.3 200.217 41.25C200.217 53.2 208.367 58.55 224.667 58.55C240.917 58.55 249.117 53.2 249.117 41.25C249.117 29.3 240.917 24 224.667 24ZM224.667 49.85C214.267 49.85 210.517 48.45 210.517 41.25C210.517 34.05 214.267 32.7 224.667 32.7C235.067 32.7 238.817 34.05 238.817 41.25C238.817 48.45 235.067 49.85 224.667 49.85Z" fill="white"/>
<path d="M288.243 58.55C291.243 58.55 293.943 56.7 293.943 52.25V24.55H284.493V44.2L263.993 25.8C262.343 24.3 261.093 24 259.843 24C256.893 24 254.193 25.8 254.193 30.25V58H263.593V38.35L284.093 56.75C285.693 58.25 286.943 58.55 288.243 58.55Z" fill="white"/>
<path d="M12.5 64.4962L36.6659 20.5371L62 64.4965H73.997L37 0L0 64.4962H12.5Z" fill="#F5C249"/>
<path d="M36.1263 36.11L22.9151 59.9318L49.7242 59.7523L36.1263 36.11Z" fill="#F5C249"/>
<path d="M62.583 23.543L84.79 55.608C86.327 57.834 88.5 59.583 91.786 59.583C95.178 59.583 97.351 57.675 98.888 55.608L121.572 23.543H108.64L91.998 47.075L76.045 23.543H62.583Z" fill="white"/>
</svg>
