<svg width="24" height="24" viewBox="0 0 24 24"  xmlns="http://www.w3.org/2000/svg">
<g clip-path="url(#clip0_107_456)">
<path d="M12.75 2.75C12.75 3.85457 11.8546 4.75 10.75 4.75C9.64543 4.75 8.75 3.85457 8.75 2.75C8.75 1.64543 9.64543 0.75 10.75 0.75C11.8546 0.75 12.75 1.64543 12.75 2.75Z" fill="white"/>
<path fill-rule="evenodd" clip-rule="evenodd" d="M10.75 1.5C10.0596 1.5 9.5 2.05964 9.5 2.75C9.5 3.44036 10.0596 4 10.75 4C11.4404 4 12 3.44036 12 2.75C12 2.05964 11.4404 1.5 10.75 1.5ZM8 2.75C8 1.23122 9.23122 0 10.75 0C12.2688 0 13.5 1.23122 13.5 2.75C13.5 4.26878 12.2688 5.5 10.75 5.5C9.23122 5.5 8 4.26878 8 2.75Z" fill="white"/>
<path d="M12.75 10.75C12.75 11.8546 11.8546 12.75 10.75 12.75C9.64543 12.75 8.75 11.8546 8.75 10.75C8.75 9.64543 9.64543 8.75 10.75 8.75C11.8546 8.75 12.75 9.64543 12.75 10.75Z" fill="white"/>
<path fill-rule="evenodd" clip-rule="evenodd" d="M10.75 9.5C10.0596 9.5 9.5 10.0596 9.5 10.75C9.5 11.4404 10.0596 12 10.75 12C11.4404 12 12 11.4404 12 10.75C12 10.0596 11.4404 9.5 10.75 9.5ZM8 10.75C8 9.23122 9.23122 8 10.75 8C12.2688 8 13.5 9.23122 13.5 10.75C13.5 12.2688 12.2688 13.5 10.75 13.5C9.23122 13.5 8 12.2688 8 10.75Z" fill="white"/>
<path d="M12.75 18.75C12.75 19.8546 11.8546 20.75 10.75 20.75C9.64543 20.75 8.75 19.8546 8.75 18.75C8.75 17.6454 9.64543 16.75 10.75 16.75C11.8546 16.75 12.75 17.6454 12.75 18.75Z" fill="white"/>
<path fill-rule="evenodd" clip-rule="evenodd" d="M10.75 17.5C10.0596 17.5 9.5 18.0596 9.5 18.75C9.5 19.4404 10.0596 20 10.75 20C11.4404 20 12 19.4404 12 18.75C12 18.0596 11.4404 17.5 10.75 17.5ZM8 18.75C8 17.2312 9.23122 16 10.75 16C12.2688 16 13.5 17.2312 13.5 18.75C13.5 20.2688 12.2688 21.5 10.75 21.5C9.23122 21.5 8 20.2688 8 18.75Z" fill="white"/>
</g>
<defs>
<clipPath id="clip0_107_456">
<rect width="21.5" height="21.5" fill="white"/>
</clipPath>
</defs>
</svg>
