<svg width="189" height="98" viewBox="0 0 189 98" fill="none" xmlns="http://www.w3.org/2000/svg">
<g filter="url(#filter0_d_2_422)">
<path d="M13.2967 54.9338L31.1248 18.0619L49.4374 54.6482L57.8257 54.5817L31.0067 1L4.9082 55L13.2967 54.9338Z" fill="#F5C249"/>
<path d="M31.4585 31L21.8817 50.7904L41.3156 50.6413L31.4585 31Z" fill="#F5C249"/>
<path d="M82.453 28.696L73.461 52.376H70.165L61.365 28.696H65.141L71.861 47.96L78.837 28.696H82.453ZM100.419 43.096L96.5468 33.24L92.6428 43.096H100.419ZM107.843 52.504H104.131L101.699 46.392H91.3308L88.8668 52.504H85.1868L94.9148 28.632H98.4028L107.843 52.504ZM124.965 52.376H112.933V28.696H116.389V49.08H124.965V52.376ZM139.793 31.448C137.574 31.448 135.825 32.3867 134.545 34.264C133.372 35.9493 132.785 38.04 132.785 40.536C132.785 43.0533 133.372 45.1547 134.545 46.84C135.825 48.7173 137.574 49.656 139.793 49.656C142.012 49.656 143.761 48.7173 145.041 46.84C146.193 45.1547 146.769 43.0533 146.769 40.536C146.769 38.0613 146.193 35.9707 145.041 34.264C143.761 32.3867 142.012 31.448 139.793 31.448ZM139.793 28.216C143.206 28.216 145.862 29.4853 147.761 32.024C149.446 34.2853 150.278 37.1227 150.257 40.536C150.214 44.2693 149.34 47.2133 147.633 49.368C145.777 51.7147 143.164 52.888 139.793 52.888C136.444 52.888 133.82 51.7147 131.921 49.368C130.172 47.1707 129.297 44.2267 129.297 40.536C129.297 37.08 130.129 34.232 131.793 31.992C133.67 29.4747 136.337 28.216 139.793 28.216ZM174.389 52.504H170.549L160.309 34.616V52.504H156.853V28.632H160.533L170.933 46.808V28.632H174.389V52.504Z" fill="#FFFFFE"/>
</g>
<defs>
<filter id="filter0_d_2_422" x="0.908203" y="0" width="177.48" height="62" filterUnits="userSpaceOnUse" color-interpolation-filters="sRGB">
<feFlood flood-opacity="0" result="BackgroundImageFix"/>
<feColorMatrix in="SourceAlpha" type="matrix" values="0 0 0 0 0 0 0 0 0 0 0 0 0 0 0 0 0 0 127 0" result="hardAlpha"/>
<feOffset dy="3"/>
<feGaussianBlur stdDeviation="2"/>
<feComposite in2="hardAlpha" operator="out"/>
<feColorMatrix type="matrix" values="0 0 0 0 1 0 0 0 0 1 0 0 0 0 1 0 0 0 0.25 0"/>
<feBlend mode="normal" in2="BackgroundImageFix" result="effect1_dropShadow_2_422"/>
<feBlend mode="normal" in="SourceGraphic" in2="effect1_dropShadow_2_422" result="shape"/>
</filter>
</defs>
</svg>
